Coordinates
version=1
nRows=28
nColumns=23
inDegrees=yes

Units are S.I. units (second, meters, Newtons, ...)
Angles are in degrees.

endheader
time	pelvis_tilt	pelvis_list	pelvis_rotation	pelvis_tx	pelvis_ty	pelvis_tz	hip_flexion_r	hip_adduction_r	hip_rotation_r	knee_angle_r	knee_angle_r_beta	ankle_angle_r	subtalar_angle_r	mtp_angle_r	hip_flexion_l	hip_adduction_l	hip_rotation_l	knee_angle_l	knee_angle_l_beta	ankle_angle_l	subtalar_angle_l	mtp_angle_l
    123.00444400	     -2.63938466	      1.59231814	      1.16494000	     -0.02734451	      1.28153508	      0.20965583	     35.81182459	     -7.51261253	      0.29464098	     59.19320059	      1.03311625	     -5.31420163	      0.00000000	      0.00000000	     76.54016804	      0.19981199	      7.27353520	    103.30411184	      1.80299688	      9.68513556	      0.00000000	      0.00000000
    123.01333300	     -2.44833140	      1.44196654	      0.98267315	     -0.02708134	      1.28165200	      0.20971752	     36.54505932	     -7.36459694	      0.61944872	     62.30264355	      1.08738626	     -4.76062433	      0.00000000	      0.00000000	     75.15176637	     -0.05646446	      7.14170230	    100.75485366	      1.75850393	     10.38794709	      0.00000000	      0.00000000
    123.02222200	     -2.23469396	      1.00569778	      0.80459724	     -0.02680907	      1.28163721	      0.20977655	     37.26618101	     -6.93092559	      0.79352446	     65.41126340	      1.14164191	     -4.06607130	      0.00000000	      0.00000000	     73.63730168	     -0.47327983	      7.26165061	     98.12236661	      1.71255837	     11.09464119	      0.00000000	      0.00000000
    123.03111100	     -2.14768479	      0.11663388	      0.77386281	     -0.02638791	      1.28132767	      0.20939691	     38.09040932	     -6.22257327	      0.51535164	     68.39418798	      1.19370377	     -4.04047628	      0.00000000	      0.00000000	     72.22622145	     -0.94788193	      7.86661211	     95.44830615	      1.66588721	     11.53241618	      0.00000000	      0.00000000
    123.04000000	     -1.77228359	      0.08463641	      0.32465247	     -0.02615683	      1.28164439	      0.20998737	     38.83998111	     -5.94228077	      1.18541686	     71.64818068	      1.25049666	     -2.67574610	      0.00000000	      0.00000000	     70.11049417	     -1.57743077	      7.39607690	     92.41121728	      1.61288001	     12.22617845	      0.00000000	      0.00000000
    123.04888900	     -1.44826695	     -0.24429595	      0.05884087	     -0.02583715	      1.28191087	      0.21006765	     39.62891009	     -5.56508710	      1.45819246	     74.73667287	      1.30440101	     -2.18874754	      0.00000000	      0.00000000	     67.99383338	     -2.13898109	      7.26247425	     89.29803124	      1.55854466	     12.65422363	      0.00000000	      0.00000000
    123.05777800	     -1.21496259	     -0.83225142	     -0.25233470	     -0.02547160	      1.28197960	      0.21024922	     40.54602250	     -4.89697191	      1.61123098	     77.79226177	      1.35773110	     -1.57508966	      0.00000000	      0.00000000	     65.91835487	     -2.92368074	      7.30529923	     86.14428558	      1.50350142	     12.95201626	      0.00000000	      0.00000000
    123.06666700	     -0.93426062	     -1.34752420	     -0.57497556	     -0.02510588	      1.28217114	      0.21038236	     41.48866314	     -4.30741118	      1.79561239	     80.81137953	      1.41042465	     -1.11003700	      0.00000000	      0.00000000	     63.66484725	     -3.70337130	      7.21030945	     82.87372064	      1.44641929	     13.17669069	      0.00000000	      0.00000000
    123.07555600	     -0.76128052	     -2.08443424	     -0.95431647	     -0.02473016	      1.28224304	      0.21062279	     42.58547050	     -3.45572720	      1.87819096	     83.74848514	      1.46168681	     -0.60630340	      0.00000000	      0.00000000	     61.48483189	     -4.70116823	      7.22455074	     79.57763453	      1.38889173	     13.16117257	      0.00000000	      0.00000000
    123.08444400	     -0.52444887	     -2.64333499	     -1.32639192	     -0.02441426	      1.28251053	      0.21075820	     43.70605621	     -2.80396385	      2.02546921	     86.62492507	      1.51189016	     -0.31805497	      0.00000000	      0.00000000	     59.09665746	     -5.59221117	      7.00870833	     76.15479639	      1.32915194	     13.17032853	      0.00000000	      0.00000000
    123.09333300	     -0.63351142	     -3.82092678	     -1.39563348	     -0.02393073	      1.28231423	      0.21025751	     45.13037383	     -1.89597371	      1.46066772	     89.27012058	      1.55805753	     -0.40305686	      0.00000000	      0.00000000	     57.20165950	     -6.58637556	      7.48611566	     72.85086025	      1.27148737	     13.20031131	      0.00000000	      0.00000000
    123.10222200	     -0.20922035	     -3.96482750	     -2.11896975	     -0.02394082	      1.28297671	      0.21103081	     46.32717238	     -1.32344632	      2.10001078	     92.08681186	      1.60721806	     -0.06099896	      0.00000000	      0.00000000	     54.34584335	     -7.58107787	      6.48002738	     69.23304385	      1.20834457	     12.72864621	      0.00000000	      0.00000000
    123.11111100	     -0.11063097	     -4.68236766	     -2.52467133	     -0.02380254	      1.28323741	      0.21116119	     47.79750036	     -0.55725860	      2.03150941	     94.63911524	      1.65176416	     -0.10892191	      0.00000000	      0.00000000	     51.98953987	     -8.63404471	      6.13160164	     65.77504369	      1.14799108	     12.25576530	      0.00000000	      0.00000000
    123.12000000	     -0.15329443	     -5.52462468	     -2.91813072	     -0.02373923	      1.28331817	      0.21126403	     49.47026147	      0.27419117	      1.79853590	     97.04805848	      1.69380815	     -0.23163174	      0.00000000	      0.00000000	     49.83028664	     -9.77361428	      5.80874704	     62.39443681	      1.08898836	     11.48611942	      0.00000000	      0.00000000
    123.12888900	     -0.16033356	     -6.09910812	     -3.35054216	     -0.02378182	      1.28353376	      0.21134807	     51.21495516	      0.87316504	      1.72971978	     99.36663649	      1.73427497	     -0.48129611	      0.00000000	      0.00000000	     47.55332196	    -10.72102340	      5.17658132	     58.99409843	      1.02964126	     10.72693762	      0.00000000	      0.00000000
    123.13777800	     -0.22118938	     -6.72501882	     -3.77108207	     -0.02392797	      1.28370096	      0.21142086	     53.05993922	      1.48542760	      1.56562171	    101.52433597	      1.77193393	     -0.77908475	      0.00000000	      0.00000000	     45.40292571	    -11.69312978	      4.52488066	     55.72492442	      0.97258341	      9.68392110	      0.00000000	      0.00000000
    123.14666700	     -0.42714618	     -7.44340361	     -4.12701984	     -0.02412748	      1.28372191	      0.21144325	     55.07855830	      2.07343009	      1.20753753	    103.50105589	      1.80643420	     -1.13250612	      0.00000000	      0.00000000	     43.53714481	    -12.69108178	      3.93158255	     52.64139833	      0.91876572	      8.28887682	      0.00000000	      0.00000000
    123.15555600	     -0.65316026	     -7.98022259	     -4.50969161	     -0.02440025	      1.28378966	      0.21143235	     57.17526807	      2.51527712	      0.96977473	    105.33137904	      1.83837937	     -1.52334532	      0.00000000	      0.00000000	     41.72112653	    -13.52535718	      3.18600923	     49.69869766	      0.86740591	      6.76938830	      0.00000000	      0.00000000
    123.16444400	     -0.90570544	     -8.48159604	     -4.83053142	     -0.02476202	      1.28377872	      0.21143349	     59.32566918	      2.85174593	      0.66463590	    107.01094139	      1.86769326	     -1.91950257	      0.00000000	      0.00000000	     40.07603859	    -14.29084864	      2.42237870	     47.01588875	      0.82058206	      5.12478882	      0.00000000	      0.00000000
    123.17333300	     -1.18538329	     -9.12526124	     -5.00855571	     -0.02511990	      1.28385592	      0.21105528	     61.43374409	      3.09079552	      0.10443045	    108.43898624	      1.89261735	     -2.24067848	      0.00000000	      0.00000000	     38.62488526	    -15.03612172	      1.96323525	     44.62315735	      0.77882102	      3.73746390	      0.00000000	      0.00000000
    123.18222200	     -1.52879481	     -9.08808426	     -5.48608556	     -0.02553213	      1.28373851	      0.21140147	     63.77673729	      3.22067923	      0.29161389	    109.86142549	      1.91744360	     -2.69248621	      0.00000000	      0.00000000	     37.20830004	    -15.41127946	      0.71671756	     42.42328735	      0.74042604	      1.57110649	      0.00000000	      0.00000000
    123.19111100	     -1.85271615	     -9.38874105	     -5.72657155	     -0.02589591	      1.28377572	      0.21132134	     65.94876106	      3.31611170	      0.00423455	    110.97618220	      1.93689977	     -3.02054959	      0.00000000	      0.00000000	     36.03065199	    -15.90725441	     -0.04252382	     40.62346920	      0.70901329	     -0.24046644	      0.00000000	      0.00000000
    123.20000000	     -2.19544074	     -9.54010934	     -5.97650049	     -0.02626652	      1.28376227	      0.21131234	     68.11535487	      3.34504743	     -0.16329464	    111.91115988	      1.95321821	     -3.31885816	      0.00000000	      0.00000000	     34.99150858	    -16.26370227	     -0.81168149	     39.15081593	      0.68331064	     -1.90583665	      0.00000000	      0.00000000
    123.20888900	     -2.48227933	     -9.79131017	     -6.16425688	     -0.02663304	      1.28383776	      0.21133084	     70.11488219	      3.40079328	     -0.47932393	    112.61147116	      1.96544095	     -3.54442187	      0.00000000	      0.00000000	     34.09497048	    -16.69914431	     -1.47274903	     38.08377232	      0.66468722	     -3.54327055	      0.00000000	      0.00000000
    123.21777800	     -2.62972677	    -10.07172540	     -6.22490945	     -0.02696361	      1.28419651	      0.21091971	     71.82186746	      3.32614818	     -0.86917188	    113.03988079	      1.97291811	     -3.65741097	      0.00000000	      0.00000000	     33.15999110	    -17.00400818	     -1.75031660	     37.33122936	      0.65155287	     -4.24541691	      0.00000000	      0.00000000
    123.22666700	     -2.99796671	    -10.02896367	     -6.51154671	     -0.02724925	      1.28405868	      0.21133969	     73.77193315	      3.41627013	     -0.90223844	    113.34814503	      1.97829833	     -3.84339266	      0.00000000	      0.00000000	     32.60926178	    -17.23800874	     -2.47371890	     37.00946344	      0.64593699	     -5.69849358	      0.00000000	      0.00000000
    123.23555600	     -3.16646365	    -10.10613405	     -6.62523565	     -0.02752338	      1.28422660	      0.21141588	     75.30521901	      3.42447878	     -1.10040818	    113.38267725	      1.97890103	     -3.88395739	      0.00000000	      0.00000000	     32.03799000	    -17.43781660	     -2.80958557	     37.10003134	      0.64751770	     -6.30722411	      0.00000000	      0.00000000
    123.24444400	     -3.19400657	    -10.17080038	     -6.67096759	     -0.02784573	      1.28447025	      0.21132777	     76.52352181	      3.39486085	     -1.28302057	    113.20197897	      1.97574725	     -3.83918063	      0.00000000	      0.00000000	     31.50163337	    -17.56483110	     -2.94902917	     37.58672926	      0.65601218	     -6.61071570	      0.00000000	      0.00000000
